<?xml version="1.0" encoding="UTF-8" standalone="no"?>
<svg
   viewBox="0 0 15 15"
   version="1.1"
   id="svg8558"
   sodipodi:docname="multiselect-on.svg"
   inkscape:version="1.1.1 (3bf5ae0d25, 2021-09-20)"
   xmlns:inkscape="http://www.inkscape.org/namespaces/inkscape"
   xmlns:sodipodi="http://sodipodi.sourceforge.net/DTD/sodipodi-0.dtd"
   xmlns:xlink="http://www.w3.org/1999/xlink"
   xmlns="http://www.w3.org/2000/svg"
   xmlns:svg="http://www.w3.org/2000/svg">
  <defs
     id="defs8562">
    <linearGradient
       inkscape:collect="always"
       id="linearGradient4797">
      <stop
         style="stop-color:#f0e900;stop-opacity:1;"
         offset="0"
         id="stop4793" />
      <stop
         style="stop-color:#f0e900;stop-opacity:0;"
         offset="1"
         id="stop4795" />
    </linearGradient>
    <linearGradient
       inkscape:collect="always"
       xlink:href="#linearGradient4797"
       id="linearGradient4799"
       x1="18.867189"
       y1="-8.9648438"
       x2="0.39257807"
       y2="17.941406"
       gradientUnits="userSpaceOnUse" />
  </defs>
  <sodipodi:namedview
     id="namedview8560"
     pagecolor="#ffffff"
     bordercolor="#666666"
     borderopacity="1.0"
     inkscape:pageshadow="2"
     inkscape:pageopacity="0.0"
     inkscape:pagecheckerboard="0"
     showgrid="false"
     inkscape:zoom="32"
     inkscape:cx="3.46875"
     inkscape:cy="4.890625"
     inkscape:window-width="1633"
     inkscape:window-height="1081"
     inkscape:window-x="238"
     inkscape:window-y="183"
     inkscape:window-maximized="0"
     inkscape:current-layer="g8554" />
  <g
     stroke="none"
     stroke-width="1"
     fill="none"
     fill-rule="evenodd"
     id="g8556"
     style="fill:#ffffff;fill-opacity:1;stroke-width:1.00002;stroke-miterlimit:4;stroke-dasharray:none"
     transform="matrix(0.72298914,0,0,0.72298914,2.0767411,2.0775917)">
    <g
       transform="matrix(1.5176,0,0,1.5397,-4.1302,-3.9124)"
       fill="#ffffff"
       stroke-width="1"
       id="g8554"
       style="fill:#ffffff;fill-opacity:1;stroke-width:0.654199;stroke-miterlimit:4;stroke-dasharray:none">
      <path
         id="rect2369"
         style="fill:url(#linearGradient4799);fill-opacity:1;fill-rule:evenodd;stroke:none;stroke-width:1.19127;stroke-miterlimit:4;stroke-dasharray:none;stroke-opacity:0.495968"
         d="M 1.8984375,0.92773438 V 7.3808594 H 6.6503906 V 7.6894531 H 3.8222656 V 14.142578 H 10.408203 V 9.6796875 h 2.828125 V 3.2265625 H 8.484375 V 0.92773438 Z m 0.8925781,0.77343752 4.8066406,0.0625 V 3.2109375 L 7.0722656,3.2265625 C 7.168363,3.0560088 7.2382813,2.9296875 7.2382812,2.9296875 L 6.3691406,2.3457031 4.9199219,4.7753906 C 4.556656,4.6780536 3.5527344,3.9785156 3.5527344,3.9785156 L 3.0722656,4.78125 c 0,0 1.6530486,1.2050781 2.046875,1.2050781 0.2748469,0 1.0041778,-1.1430545 1.53125,-2.03125 v 2.5214844 l -3.953125,0.015625 z M 7.6054688,4.15625 v 0 l 4.6816402,0.015625 v 4.5410156 0 l -4.7128902,-0.03125 v 0 z M 11.15625,4.7207031 9.7070312,7.1503906 C 9.3437653,7.0530536 8.3398438,6.3535156 8.3398438,6.3535156 L 7.8613281,7.15625 c 0,0 1.6510954,1.2050781 2.0449219,1.2050781 0.449333,0 2.121094,-3.0566406 2.121094,-3.0566406 z M 4.7148438,8.6503906 h 1.9355468 v 1.0292969 h 1.4101563 l -1.1875,1.9921875 C 6.509781,11.574538 5.5058594,10.875 5.5058594,10.875 l -0.4785156,0.802734 c 0,0 1.6510954,1.205078 2.0449218,1.205078 0.4493332,0 2.1191406,-3.0566401 2.1191406,-3.0566401 l -0.21875,-0.1464844 h 0.4550782 l -0.03125,3.5273435 -4.7128906,0.01563 z"
         transform="matrix(0.91140395,0,0,0.89832217,0.82878395,0.67466781)"
         sodipodi:nodetypes="ccccccccccccccccccccccsccccccccccccccccscccccccccscccccc" />
    </g>
  </g>
</svg>
