<?xml version="1.0" encoding="UTF-8" standalone="no"?>
<svg
   viewBox="0 0 15 15"
   version="1.1"
   id="svg8558"
   sodipodi:docname="server-offline.svg"
   inkscape:version="1.1.1 (3bf5ae0d25, 2021-09-20)"
   xmlns:inkscape="http://www.inkscape.org/namespaces/inkscape"
   xmlns:sodipodi="http://sodipodi.sourceforge.net/DTD/sodipodi-0.dtd"
   xmlns="http://www.w3.org/2000/svg"
   xmlns:svg="http://www.w3.org/2000/svg">
  <defs
     id="defs8562" />
  <sodipodi:namedview
     id="namedview8560"
     pagecolor="#ffffff"
     bordercolor="#666666"
     borderopacity="1.0"
     inkscape:pageshadow="2"
     inkscape:pageopacity="0.0"
     inkscape:pagecheckerboard="0"
     showgrid="false"
     inkscape:zoom="32"
     inkscape:cx="10.03125"
     inkscape:cy="10.796875"
     inkscape:window-width="1633"
     inkscape:window-height="1081"
     inkscape:window-x="1216"
     inkscape:window-y="247"
     inkscape:window-maximized="0"
     inkscape:current-layer="g8554" />
  <g
     stroke="none"
     stroke-width="1"
     fill="none"
     fill-rule="evenodd"
     id="g8556"
     style="fill:#ffffff;fill-opacity:1;stroke-width:1.00002;stroke-miterlimit:4;stroke-dasharray:none"
     transform="matrix(0.72298914,0,0,0.72298914,2.0767411,2.0775917)">
    <g
       transform="matrix(1.5176,0,0,1.5397,-4.1302,-3.9124)"
       fill="#ffffff"
       stroke-width="1"
       id="g8554"
       style="fill:#ffffff;fill-opacity:1;stroke-width:0.654199;stroke-miterlimit:4;stroke-dasharray:none">
      <path
         id="rect2369"
         style="fill:#808080;fill-opacity:1;fill-rule:evenodd;stroke:none;stroke-width:1.31347;stroke-miterlimit:4;stroke-dasharray:none;stroke-opacity:0.495968"
         d="m 7.6411725,1.5258241 c -2.7516377,0.0035 -5.4996826,0.092219 -5.6642332,0.2544076 -0.085348,0.084124 -0.3660066,0.8411354 -0.4094197,1.9229709 -0.030982,0.7720453 -0.3455257,2.6861939 1.0595702,2.6861939 -1.4034937,0 -1.1242372,1.9266136 -1.116533,2.300196 0.018075,0.8764587 -0.00144,2.3889395 1.3617657,2.4757525 1.2121336,0.07719 4.5679098,0.117451 4.5679099,0.117451 l 0.012461,1.00184 c -0.1026675,0.04928 -0.1884483,0.150086 -0.2420916,0.249144 l -5.9154349,0.01228 v 0.595132 l 5.9011942,0.0035 c 0.085556,0.183013 0.372597,0.374844 0.6121399,0.371204 0.2282175,-0.0035 0.4863053,-0.188194 0.5718611,-0.371204 l 5.7723649,0.0035 -0.01959,-0.614432 H 8.366121 C 8.3118761,12.43361 8.2264797,12.332013 8.1222492,12.282882 l -0.00712,-1.000086 c 0,0 3.4297298,0.01634 4.5156248,-0.137301 1.213093,-0.171638 1.326164,-0.598204 1.326164,-2.3927395 0.0059,-0.5098841 -0.01568,-1.1489391 -0.104281,-1.6925319 C 13.785409,6.6477375 13.412551,6.2581587 12.87288,6.2613151 14.092137,6.2541951 13.924117,4.5284079 13.892832,3.8119809 13.843334,2.678311 13.422444,1.8745372 13.326767,1.7802317 13.148023,1.6040528 10.39281,1.5223266 7.6411725,1.5258241 Z m 0.026701,0.8011351 c 2.2883219,-0.00242 4.9005855,0.082438 5.0839605,0.2631804 0.36675,0.3614846 0.386349,2.2278118 0,2.6086149 -0.386346,0.3808035 -9.7063727,0.3614852 -10.0731219,0 -0.3667491,-0.361485 -0.3471498,-2.2664479 0,-2.6086149 C 2.852287,2.419056 5.379552,2.3293739 7.6678735,2.3269592 Z m 2.07202,1.0411272 c -0.2985093,0 -0.5411461,0.239153 -0.5411461,0.5333788 0,0.2942248 0.2426362,0.5333788 0.5411461,0.5333788 0.2985095,0 0.5411465,-0.2391534 0.5411465,-0.5333788 0,-0.2942251 -0.242636,-0.5333788 -0.5411465,-0.5333788 z m 1.4703515,0 c -0.29851,0 -0.541147,0.2391534 -0.541147,0.5333788 0,0.2942247 0.242636,0.5333788 0.541147,0.5333788 0.29851,0 0.539366,-0.2391538 0.539366,-0.5333788 0,-0.294225 -0.240855,-0.5333788 -0.539366,-0.5333788 z m -3.0190262,0.00878 c -0.2985094,0 -0.539366,0.2391533 -0.539366,0.5333788 0,0.2942246 0.2408559,0.5316243 0.539366,0.5316243 0.2985091,0 0.5411461,-0.237399 0.5411461,-0.5316243 0,-0.2942251 -0.2426359,-0.5333788 -0.5411461,-0.5333788 z m 3.0190262,0.1000085 c 0.238139,0 0.43078,0.1898762 0.43078,0.4245976 0,0.2347218 -0.192642,0.4245976 -0.43078,0.4245976 -0.23814,0 -0.432561,-0.1898764 -0.432561,-0.4245976 0,-0.2347218 0.194421,-0.4245974 0.432561,-0.4245976 z M 7.6571932,7.234395 c 2.2883225,-0.00242 4.9023668,-0.094461 5.0857398,0.086282 0.366747,0.3614844 0.386351,2.4828045 0,2.863607 -0.386348,0.380804 -9.7081521,0.361485 -10.0749012,0 -0.3667494,-0.3614851 -0.3471499,-2.4817397 0,-2.8239064 C 2.8416067,7.1892942 5.3688711,7.2368097 7.6571932,7.234395 Z m 2.0720199,1.0376181 c -0.2985081,-1e-7 -0.539366,0.2373984 -0.539366,0.5316242 0,0.2942244 0.2408556,0.5333788 0.539366,0.5333788 0.2985059,0 0.5411459,-0.2391538 0.5411459,-0.5333788 0,-0.294225 -0.242636,-0.5316242 -0.5411459,-0.5316242 z m 1.4703509,0 c -0.298505,0 -0.539366,0.237399 -0.539366,0.5316242 0,0.2942245 0.240856,0.5333788 0.539366,0.5333788 0.298509,0 0.541146,-0.2391534 0.541146,-0.5333788 0,-0.2942248 -0.242635,-0.5316242 -0.541146,-0.5316242 z m -2.9958844,0.00702 c -0.2985095,0 -0.5411461,0.239153 -0.5411461,0.5333788 0,0.2942244 0.2426365,0.5333788 0.5411461,0.5333788 0.2985092,0 0.539366,-0.2391537 0.539366,-0.5333788 -1e-7,-0.2942251 -0.2408557,-0.5333788 -0.539366,-0.5333788 z m 1.5255335,0.1000108 c 0.2381299,0 0.4325609,0.1898764 0.4325609,0.4245975 0,0.2347216 -0.1944192,0.4245976 -0.4325609,0.4245976 -0.2381302,0 -0.4307807,-0.1898767 -0.4307807,-0.4245976 0,-0.2347219 0.1926386,-0.4245974 0.4307807,-0.4245975 z"
         sodipodi:nodetypes="scscssccccccaccccccscsccsssscssssssssssssssssssssssssscsssssssssssssssssssssss" />
    </g>
  </g>
</svg>
