<?xml version="1.0" encoding="UTF-8" standalone="no"?>
<svg
   viewBox="0 0 15 15"
   version="1.1"
   id="svg8558"
   sodipodi:docname="server-active.svg"
   inkscape:version="1.1.1 (3bf5ae0d25, 2021-09-20)"
   xmlns:inkscape="http://www.inkscape.org/namespaces/inkscape"
   xmlns:sodipodi="http://sodipodi.sourceforge.net/DTD/sodipodi-0.dtd"
   xmlns:xlink="http://www.w3.org/1999/xlink"
   xmlns="http://www.w3.org/2000/svg"
   xmlns:svg="http://www.w3.org/2000/svg">
  <defs
     id="defs8562">
    <linearGradient
       inkscape:collect="always"
       id="linearGradient5336">
      <stop
         style="stop-color:#f1e900;stop-opacity:1;"
         offset="0"
         id="stop5332" />
      <stop
         style="stop-color:#f1e900;stop-opacity:0;"
         offset="1"
         id="stop5334" />
    </linearGradient>
    <linearGradient
       inkscape:collect="always"
       xlink:href="#linearGradient5336"
       id="linearGradient5338"
       x1="15.758709"
       y1="-4.611774"
       x2="-0.18399225"
       y2="20.799875"
       gradientUnits="userSpaceOnUse" />
  </defs>
  <sodipodi:namedview
     id="namedview8560"
     pagecolor="#ffffff"
     bordercolor="#666666"
     borderopacity="1.0"
     inkscape:pageshadow="2"
     inkscape:pageopacity="0.0"
     inkscape:pagecheckerboard="0"
     showgrid="false"
     inkscape:zoom="22.627417"
     inkscape:cx="4.4636116"
     inkscape:cy="12.352272"
     inkscape:window-width="1633"
     inkscape:window-height="1081"
     inkscape:window-x="180"
     inkscape:window-y="163"
     inkscape:window-maximized="0"
     inkscape:current-layer="g8554" />
  <g
     stroke="none"
     stroke-width="1"
     fill="none"
     fill-rule="evenodd"
     id="g8556"
     style="fill:#ffffff;fill-opacity:1;stroke-width:1.00002;stroke-miterlimit:4;stroke-dasharray:none"
     transform="matrix(0.72298914,0,0,0.72298914,2.0767411,2.0775917)">
    <g
       transform="matrix(1.5176,0,0,1.5397,-4.1302,-3.9124)"
       fill="#ffffff"
       stroke-width="1"
       id="g8554"
       style="fill:#ffffff;fill-opacity:1;stroke-width:0.654199;stroke-miterlimit:4;stroke-dasharray:none">
      <path
         id="rect2369"
         style="fill:url(#linearGradient5338);fill-opacity:1;fill-rule:evenodd;stroke:none;stroke-width:1.45161;stroke-miterlimit:4;stroke-dasharray:none;stroke-opacity:0.495968"
         d="M 7.4746094,0.19726562 C 4.4554896,0.20116182 1.4403119,0.29992258 1.2597656,0.48046875 1.1661211,0.57411444 0.85818082,1.4168088 0.81054688,2.6210938 0.78252966,3.329438 0.85596558,5.4257816 1.6972656,5.4257812 c 1.4455444,0 5.5703125,0.1425782 5.5703125,0.1425782 l 0.00781,0.8710937 c 0,0 -5.4432927,0.015625 -5.3027344,0.015625 -1.22742471,0 -1.19781653,1.238368 -1.22460932,2.5605469 -0.037496,1.850388 -0.00158,2.65922 1.49414062,2.755859 1.0434035,0.06742 3.1215142,0.102141 4.1464844,0.117188 a 4.912001,4.9120011 0 0 1 -0.041016,-0.582031 4.912001,4.9120011 0 0 1 0.023438,-0.328125 C 4.1545741,10.949996 2.1887659,10.850877 2.0175757,10.679688 1.6151752,10.277282 1.63668,7.9180047 2.0175757,7.5371094 2.2080235,7.3466617 4.9814191,7.3991724 7.4921851,7.3964844 7.764311,7.3961928 8.042725,7.3915444 8.3203101,7.3886744 A 4.912001,4.9120011 0 0 1 11.259766,6.3945312 4.912001,4.9120011 0 0 1 14.277344,7.4316406 C 14.261678,7.2636055 14.244553,7.1149184 14.226562,7.0136719 14.145209,6.5557829 13.586093,6.3361806 13.121094,6.34375 11.629348,6.368033 7.9863281,6.4472656 7.9863281,6.4472656 L 7.9960981,5.5703125 13.31641,5.4804685 C 14.306308,5.427017 14.36052,4.2962023 14.333984,2.7421875 14.279673,1.4802016 14.334552,0.73137272 13.744141,0.48046875 13.166116,0.23482833 10.493729,0.19337226 7.4746094,0.19726562 Z m 0.029297,0.89257818 c 2.5107656,-0.00269 5.3769246,0.091769 5.5781246,0.2929687 0.402401,0.4023997 0.423906,2.4803921 0,2.9042969 C 12.658129,4.7110146 2.4004471,4.7520098 1.9980469,4.3496094 1.5956467,3.9472092 1.6484012,1.7637081 2.0292969,1.3828125 2.2197447,1.1923646 4.9931405,1.0925318 7.5039064,1.0898438 Z M 9.777344,2.2480469 c -0.3275269,0 -0.59375,0.2662218 -0.59375,0.59375 0,0.327527 0.2662224,0.59375 0.59375,0.59375 0.327527,0 0.59375,-0.2662223 0.59375,-0.59375 0,-0.3275274 -0.266222,-0.59375 -0.59375,-0.59375 z m 1.613281,0 c -0.327528,0 -0.59375,0.2662223 -0.59375,0.59375 0,0.3275269 0.266221,0.59375 0.59375,0.59375 0.327528,0 0.591797,-0.2662228 0.591797,-0.59375 0,-0.3275273 -0.264268,-0.59375 -0.591797,-0.59375 z m -3.3124998,0.00977 c -0.327527,0 -0.5917969,0.2662222 -0.5917969,0.59375 0,0.3275268 0.2642691,0.5917969 0.5917969,0.5917969 0.3275267,0 0.59375,-0.2642693 0.59375,-0.5917969 0,-0.3275274 -0.2662221,-0.59375 -0.59375,-0.59375 z M 11.390625,2.369145 c 0.261288,0 0.472656,0.2113676 0.472656,0.4726563 0,0.2612891 -0.211369,0.4726562 -0.472656,0.4726562 -0.261289,0 -0.474609,-0.2113678 -0.474609,-0.4726562 0,-0.2612891 0.21332,-0.4726561 0.474609,-0.4726563 z M 11.269531,7.5625 C 9.2227343,7.5619607 7.5630398,9.2207815 7.5625,11.267578 c -5.409e-4,2.047561 1.6594707,3.707571 3.707031,3.707031 2.046798,-5.38e-4 3.705618,-1.660233 3.705078,-3.707031 C 14.97407,9.2215445 13.315565,7.5630392 11.269531,7.5625 Z m 1.300781,1.2714844 1.060547,0.7109375 c 0,0 -2.036454,3.7246091 -2.583984,3.7246091 -0.479893,0 -2.4921875,-1.46875 -2.4921875,-1.46875 l 0.5839844,-0.976562 c 0,0 1.2233621,0.852094 1.6660161,0.970703 z m -5.7871089,4.4921876 -6.27148435,0.01367 v 1.005859 l 6.38085935,0.0039 c 0.093873,0.203728 0.4756883,0.415101 0.765625,0.414063 0.037932,-1.36e-4 0.077071,-0.0046 0.1171875,-0.01172 A 4.912001,4.9120011 0 0 1 6.7832031,13.326172 Z"
         transform="matrix(0.91140395,0,0,0.89832217,0.82878395,0.67466781)" />
    </g>
  </g>
</svg>
