<?xml version="1.0" encoding="UTF-8" standalone="no"?>
<svg
   viewBox="0 0 15 15"
   version="1.1"
   id="svg8558"
   sodipodi:docname="server-active-light.svg"
   inkscape:version="1.1.1 (3bf5ae0d25, 2021-09-20)"
   xmlns:inkscape="http://www.inkscape.org/namespaces/inkscape"
   xmlns:sodipodi="http://sodipodi.sourceforge.net/DTD/sodipodi-0.dtd"
   xmlns="http://www.w3.org/2000/svg"
   xmlns:svg="http://www.w3.org/2000/svg">
  <defs
     id="defs8562" />
  <sodipodi:namedview
     id="namedview8560"
     pagecolor="#ffffff"
     bordercolor="#666666"
     borderopacity="1.0"
     inkscape:pageshadow="2"
     inkscape:pageopacity="0.0"
     inkscape:pagecheckerboard="0"
     showgrid="false"
     inkscape:zoom="22.627417"
     inkscape:cx="0.8396893"
     inkscape:cy="9.0819027"
     inkscape:window-width="1633"
     inkscape:window-height="1081"
     inkscape:window-x="180"
     inkscape:window-y="163"
     inkscape:window-maximized="0"
     inkscape:current-layer="g8554" />
  <g
     stroke="none"
     stroke-width="1"
     fill="none"
     fill-rule="evenodd"
     id="g8556"
     style="fill:#ffffff;fill-opacity:1;stroke-width:1.00002;stroke-miterlimit:4;stroke-dasharray:none"
     transform="matrix(0.72298914,0,0,0.72298914,2.0767411,2.0775917)">
    <g
       transform="matrix(1.5176,0,0,1.5397,-4.1302,-3.9124)"
       fill="#ffffff"
       stroke-width="1"
       id="g8554"
       style="fill:#ffffff;fill-opacity:1;stroke-width:0.654199;stroke-miterlimit:4;stroke-dasharray:none">
      <path
         id="rect2369"
         style="fill:#940793;fill-opacity:1;fill-rule:evenodd;stroke:none;stroke-width:1.45161;stroke-miterlimit:4;stroke-dasharray:none;stroke-opacity:0.495968"
         d="M 7.4746094,0.19726562 C 4.4554896,0.20116182 1.4403119,0.29992258 1.2597656,0.48046875 1.1661211,0.57411444 0.85818082,1.4168088 0.81054688,2.6210938 0.78252966,3.329438 0.85596558,5.4257816 1.6972656,5.4257812 c 1.4455444,0 5.5703125,0.1425782 5.5703125,0.1425782 l 0.00781,0.8710937 c 0,0 -5.4432927,0.015625 -5.3027344,0.015625 -1.22742471,0 -1.19781653,1.238368 -1.22460932,2.5605469 -0.037496,1.850388 -0.00158,2.65922 1.49414062,2.755859 1.0434035,0.06742 3.1215142,0.102141 4.1464844,0.117188 C 6.3634764,11.695646 6.3497804,11.501293 6.3476534,11.306641 6.5656965,9.2761574 7.1635042,8.534132 8.3203101,7.3886744 9.1669692,6.7483821 10.198267,6.3995905 11.259766,6.3945312 12.353011,6.3947964 13.414924,6.7597648 14.277344,7.4316406 14.261678,7.2636055 14.244553,7.1149184 14.226562,7.0136719 14.145209,6.5557829 13.586093,6.3361806 13.121094,6.34375 11.629348,6.368033 7.9863281,6.4472656 7.9863281,6.4472656 L 7.9960981,5.5703125 13.31641,5.4804685 C 14.306308,5.427017 14.36052,4.2962023 14.333984,2.7421875 14.279673,1.4802016 14.334552,0.73137272 13.744141,0.48046875 13.166116,0.23482833 10.493729,0.19337226 7.4746094,0.19726562 Z m 2.319629,1.81579488 c -0.4563034,0 -0.8271997,0.3708945 -0.8271997,0.8271997 0,0.4563035 0.3708953,0.8271997 0.8271997,0.8271997 0.4563036,0 0.8271996,-0.3708952 0.8271996,-0.8271997 0,-0.4563041 -0.370895,-0.8271997 -0.8271996,-0.8271997 z m 2.2475886,0 c -0.456305,0 -0.8272,0.3708952 -0.8272,0.8271997 0,0.4563034 0.370893,0.8271997 0.8272,0.8271997 0.456305,0 0.824478,-0.3708959 0.824478,-0.8271997 0,-0.456304 -0.368172,-0.8271997 -0.824478,-0.8271997 z m -4.6149035,0.013611 c -0.4563036,0 -0.8244787,0.370895 -0.8244787,0.8271996 0,0.4563033 0.368174,0.8244787 0.8244787,0.8244787 0.4563031,0 0.8271997,-0.3681743 0.8271997,-0.8244787 0,-0.4563041 -0.3708949,-0.8271996 -0.8271997,-0.8271996 z M 11.269531,7.5625 C 9.2227343,7.5619607 7.5630398,9.2207815 7.5625,11.267578 c -5.409e-4,2.047561 1.6594707,3.707571 3.707031,3.707031 2.046798,-5.38e-4 3.705618,-1.660233 3.705078,-3.707031 C 14.97407,9.2215445 13.315565,7.5630392 11.269531,7.5625 Z m 1.300781,1.2714844 1.060547,0.7109375 c 0,0 -2.036454,3.7246091 -2.583984,3.7246091 -0.479893,0 -2.4921875,-1.46875 -2.4921875,-1.46875 l 0.5839844,-0.976562 c 0,0 1.2233621,0.852094 1.6660161,0.970703 z m -5.7871089,4.4921876 -6.27148435,0.01367 v 1.005859 l 6.38085935,0.0039 c 0.093873,0.203728 0.4756883,0.415101 0.765625,0.414063 0.037932,-1.36e-4 0.077071,-0.0046 0.1171875,-0.01172 C 7.3625879,14.339403 7.0266064,13.856598 6.7832031,13.326172 Z"
         transform="matrix(0.91140395,0,0,0.89832217,0.82878395,0.67466781)"
         sodipodi:nodetypes="ccsscccscccccccsccccscssssssssssssssssssssccsccccccccscc" />
    </g>
  </g>
</svg>
