<?xml version="1.0" encoding="UTF-8" standalone="no"?>
<svg
   viewBox="0 0 15 15"
   version="1.1"
   id="svg8558"
   sodipodi:docname="server-offline-light.svg"
   inkscape:version="1.1.1 (3bf5ae0d25, 2021-09-20)"
   xmlns:inkscape="http://www.inkscape.org/namespaces/inkscape"
   xmlns:sodipodi="http://sodipodi.sourceforge.net/DTD/sodipodi-0.dtd"
   xmlns="http://www.w3.org/2000/svg"
   xmlns:svg="http://www.w3.org/2000/svg">
  <defs
     id="defs8562" />
  <sodipodi:namedview
     id="namedview8560"
     pagecolor="#ffffff"
     bordercolor="#666666"
     borderopacity="1.0"
     inkscape:pageshadow="2"
     inkscape:pageopacity="0.0"
     inkscape:pagecheckerboard="0"
     showgrid="false"
     inkscape:zoom="11.313709"
     inkscape:cx="25.544231"
     inkscape:cy="11.799844"
     inkscape:window-width="1633"
     inkscape:window-height="1081"
     inkscape:window-x="1739"
     inkscape:window-y="173"
     inkscape:window-maximized="0"
     inkscape:current-layer="g8554" />
  <g
     stroke="none"
     stroke-width="1"
     fill="none"
     fill-rule="evenodd"
     id="g8556"
     style="fill:#ffffff;fill-opacity:1;stroke-width:1.00002;stroke-miterlimit:4;stroke-dasharray:none"
     transform="matrix(0.72298914,0,0,0.72298914,2.0767411,2.0775917)">
    <g
       transform="matrix(1.5176,0,0,1.5397,-4.1302,-3.9124)"
       fill="#ffffff"
       stroke-width="1"
       id="g8554"
       style="fill:#ffffff;fill-opacity:1;stroke-width:0.654199;stroke-miterlimit:4;stroke-dasharray:none">
      <path
         id="rect2369"
         style="fill:#5a5a5a;fill-opacity:0.49596775;fill-rule:evenodd;stroke:none;stroke-width:1.31347;stroke-miterlimit:4;stroke-dasharray:none;stroke-opacity:0.495968"
         d="m 7.6411725,0.85208247 c -2.7516377,0.0035 -5.4996826,0.092219 -5.6642332,0.25440763 -0.085348,0.084124 -0.3660059,0.8411354 -0.4094197,1.9229709 -0.025535,0.6363213 0.042096,2.519936 0.8088603,2.519936 1.3174749,0 5.075579,0.1266316 5.075579,0.1266316 l 0.00711,0.7825309 c 0,0 -4.9600882,0.015055 -4.8319824,0.015055 -1.11868,0 -1.0921139,1.1124534 -1.116533,2.300196 -0.034174,1.6622445 -0.00144,2.3889395 1.3617657,2.4757525 1.2121336,0.07719 4.5679098,0.117451 4.5679099,0.117451 l 0.012461,0.945694 c -0.1026675,0.04928 -0.2738924,0.234304 -0.3275357,0.333362 l -5.8299908,0.01228 v 0.903931 l 5.8157501,0.0035 c 0.085556,0.183013 0.4333345,0.372137 0.697584,0.371204 0.2607958,-9.21e-4 0.6002308,-0.188194 0.6857866,-0.371204 l 5.6584397,0.0035 -0.01959,-0.923231 H 8.4800465 C 8.4258016,12.5459 8.1222492,12.310954 8.1222492,12.310954 l -0.00712,-0.94394 c 0,0 3.4297298,0.01634 4.5156248,-0.137301 1.213093,-0.171638 1.240903,-0.654876 1.269201,-1.2417645 0.04911,-1.018453 -0.01568,-2.2958889 -0.104283,-2.7873621 -0.07415,-0.4113318 -0.384691,-0.7427634 -1.008236,-0.7427634 -1.359763,0 -4.6803803,0.00869 -4.6803803,0.00869 L 8.1172727,5.6789058 12.965333,5.5984668 C 13.867548,5.5504492 13.917017,4.5342459 13.892832,3.13824 13.843332,2.0045701 13.893351,1.3318834 13.355248,1.1064908 12.828434,0.88582657 10.39281,0.84858497 7.6411725,0.85208247 Z M 9.7562747,2.4698206 c -0.4233751,0 -0.7675063,0.3391901 -0.7675063,0.7564899 0,0.4172984 0.3441304,0.75649 0.7675063,0.75649 0.4233753,0 0.7675073,-0.3391907 0.7675073,-0.75649 0,-0.4172988 -0.344131,-0.7564899 -0.7675073,-0.7564899 z m 2.0853963,0 c -0.423376,0 -0.767508,0.3391907 -0.767508,0.7564899 0,0.4172983 0.34413,0.75649 0.767508,0.75649 0.423376,0 0.764982,-0.3391913 0.764982,-0.75649 0,-0.4172986 -0.341605,-0.7564899 -0.764982,-0.7564899 z m -4.2818782,0.012453 c -0.4233752,0 -0.7649816,0.3391906 -0.7649816,0.75649 0,0.4172981 0.3416054,0.7540015 0.7649816,0.7540015 0.4233748,0 0.7675063,-0.3367024 0.7675063,-0.7540015 0,-0.4172988 -0.3441299,-0.75649 -0.7675063,-0.75649 z m 2.1805965,5.6564832 c -0.4194227,-10e-8 -0.7578433,0.3335598 -0.7578433,0.7469657 0,0.4134039 0.3384173,0.749431 0.7578433,0.749431 0.4194197,0 0.7603447,-0.3360262 0.7603447,-0.749431 0,-0.4134047 -0.340919,-0.7469657 -0.7603447,-0.7469657 z m 2.0659357,0 c -0.419418,0 -0.757843,0.3335607 -0.757843,0.7469657 0,0.4134041 0.338418,0.749431 0.757843,0.749431 0.419424,0 0.760345,-0.3360257 0.760345,-0.749431 0,-0.4134045 -0.340918,-0.7469657 -0.760345,-0.7469657 z m -4.2094068,0.00986 c -0.4194247,0 -0.7603445,0.3360251 -0.7603445,0.749431 0,0.4134039 0.3409196,0.749431 0.7603445,0.749431 0.4194243,0 0.7578434,-0.3360261 0.7578434,-0.749431 -2e-7,-0.4134049 -0.3384175,-0.749431 -0.7578434,-0.749431 z"
         sodipodi:nodetypes="scsscccssccccccaccccccssssccccssssssssssssssssssssssssssssssss" />
    </g>
  </g>
</svg>
