<?xml version="1.0" encoding="UTF-8" standalone="no"?>
<svg
   viewBox="0 0 15 15"
   version="1.1"
   id="svg8558"
   sodipodi:docname="server-offline-light.svg"
   inkscape:version="1.1.1 (3bf5ae0d25, 2021-09-20)"
   xmlns:inkscape="http://www.inkscape.org/namespaces/inkscape"
   xmlns:sodipodi="http://sodipodi.sourceforge.net/DTD/sodipodi-0.dtd"
   xmlns:xlink="http://www.w3.org/1999/xlink"
   xmlns="http://www.w3.org/2000/svg"
   xmlns:svg="http://www.w3.org/2000/svg">
  <defs
     id="defs8562">
    <linearGradient
       inkscape:collect="always"
       id="linearGradient13425">
      <stop
         style="stop-color:#292929;stop-opacity:1;"
         offset="0"
         id="stop13421" />
      <stop
         style="stop-color:#292929;stop-opacity:0;"
         offset="1"
         id="stop13423" />
    </linearGradient>
    <linearGradient
       inkscape:collect="always"
       xlink:href="#linearGradient13425"
       id="linearGradient13427"
       x1="15.421925"
       y1="-4.115325"
       x2="-3.1354694"
       y2="22.609758"
       gradientUnits="userSpaceOnUse" />
  </defs>
  <sodipodi:namedview
     id="namedview8560"
     pagecolor="#ffffff"
     bordercolor="#666666"
     borderopacity="1.0"
     inkscape:pageshadow="2"
     inkscape:pageopacity="0.0"
     inkscape:pagecheckerboard="0"
     showgrid="false"
     inkscape:zoom="32"
     inkscape:cx="3.03125"
     inkscape:cy="3.109375"
     inkscape:window-width="1633"
     inkscape:window-height="1081"
     inkscape:window-x="1558"
     inkscape:window-y="96"
     inkscape:window-maximized="0"
     inkscape:current-layer="g8554" />
  <g
     stroke="none"
     stroke-width="1"
     fill="none"
     fill-rule="evenodd"
     id="g8556"
     style="fill:#ffffff;fill-opacity:1;stroke-width:1.00002;stroke-miterlimit:4;stroke-dasharray:none"
     transform="matrix(0.72298914,0,0,0.72298914,2.0767411,2.0775917)">
    <g
       transform="matrix(1.5176,0,0,1.5397,-4.1302,-3.9124)"
       fill="#ffffff"
       stroke-width="1"
       id="g8554"
       style="fill:#ffffff;fill-opacity:1;stroke-width:0.654199;stroke-miterlimit:4;stroke-dasharray:none">
      <path
         id="rect2369"
         style="display:inline;fill:url(#linearGradient13427);fill-opacity:1;fill-rule:evenodd;stroke:none;stroke-width:1.31347;stroke-miterlimit:4;stroke-dasharray:none;stroke-opacity:1"
         d="m 7.6411725,0.85208247 c -2.7516377,0.0035 -5.4996826,0.092219 -5.6642332,0.25440763 -0.085348,0.084124 -0.3660059,0.8411354 -0.4094197,1.9229709 -0.025535,0.6363213 0.042096,2.519936 0.8088603,2.519936 1.3174749,0 5.075579,0.1266316 5.075579,0.1266316 l 0.00711,0.7825309 c 0,0 -4.9600882,0.015055 -4.8319824,0.015055 -1.11868,0 -1.0921139,1.1124534 -1.116533,2.300196 -0.034174,1.6622445 -0.00144,2.3889395 1.3617657,2.4757525 1.2121336,0.07719 4.5679098,0.117451 4.5679099,0.117451 l 0.012461,0.945694 c -0.1026675,0.04928 -0.2738924,0.234304 -0.3275357,0.333362 l -5.8299908,0.01228 v 0.903931 l 5.8157501,0.0035 c 0.085556,0.183013 0.4333345,0.372137 0.697584,0.371204 0.2607958,-9.21e-4 0.6002308,-0.188194 0.6857866,-0.371204 l 5.6584397,0.0035 -0.01959,-0.923231 H 8.4800465 C 8.4258016,12.5459 8.1222492,12.310954 8.1222492,12.310954 l -0.00712,-0.94394 c 0,0 3.4297298,0.01634 4.5156248,-0.137301 1.213093,-0.171638 1.240903,-0.654876 1.269201,-1.2417645 0.04911,-1.018453 -0.01568,-2.5204694 -0.104283,-3.0119426 -0.07415,-0.4113318 -0.584434,-0.6092004 -1.008236,-0.6024006 -1.359583,0.021814 -4.6803803,0.092908 -4.6803803,0.092908 L 8.1172727,5.6789058 12.965333,5.5984668 C 13.867548,5.5504492 13.917017,4.5342459 13.892832,3.13824 13.843332,2.0045701 13.893351,1.3318834 13.355248,1.1064908 12.828434,0.88582657 10.39281,0.84858497 7.6411725,0.85208247 Z m 0.026701,0.80113513 c 2.2883219,-0.00242 4.9005855,0.082438 5.0839605,0.2631804 0.36675,0.3614846 0.386349,2.2278118 0,2.6086149 C 12.365488,4.9058164 3.0169799,4.9426432 2.6502307,4.581158 2.2834816,4.219673 2.3315623,2.258565 2.6787121,1.916398 2.852287,1.7453144 5.379552,1.6556323 7.6678735,1.6532176 Z m 2.0801858,0.9291776 c -0.3607528,0 -0.6539828,0.2890199 -0.6539828,0.6445959 0,0.3555749 0.2932293,0.644596 0.6539828,0.644596 0.3607527,0 0.6539837,-0.2890204 0.6539837,-0.644596 0,-0.3555752 -0.29323,-0.6445959 -0.6539837,-0.6445959 z m 1.7769407,0 c -0.360754,0 -0.653984,0.2890203 -0.653984,0.6445959 0,0.3555748 0.293229,0.644596 0.653984,0.644596 0.360754,0 0.651832,-0.2890208 0.651832,-0.644596 0,-0.3555751 -0.291077,-0.6445959 -0.651832,-0.6445959 z M 7.8764637,2.593006 c -0.3607529,0 -0.6518315,0.2890202 -0.6518315,0.6445959 0,0.3555746 0.2910778,0.6424756 0.6518315,0.6424756 0.3607525,0 0.6539828,-0.2869001 0.6539828,-0.6424756 0,-0.3555752 -0.2932289,-0.6445959 -0.6539828,-0.6445959 z M 11.525,2.7138677 c 0.287794,0 0.520604,0.2294681 0.520604,0.5131323 0,0.2836646 -0.232811,0.5131322 -0.520604,0.5131322 -0.287796,0 -0.522756,-0.2294683 -0.522756,-0.5131322 0,-0.2836647 0.23496,-0.5131321 0.522756,-0.5131323 z m -3.8678068,4.604745 c 2.2883225,-0.00242 4.9447128,-0.1282255 5.0857398,0.086282 0.310524,0.472317 0.37203,2.5110355 0,2.8636073 -0.386348,0.380804 -9.7081521,0.361485 -10.0749012,0 -0.3667494,-0.3614858 -0.3471499,-2.48174 0,-2.8239067 C 2.8416067,7.2735119 5.3688711,7.3210274 7.6571932,7.3186127 Z m 2.0766446,0.9476289 c -0.3485418,-1e-7 -0.6297705,0.2771893 -0.6297705,0.620731 0,0.34354 0.281226,0.6227797 0.6297705,0.6227797 0.3485392,0 0.6318482,-0.279239 0.6318482,-0.6227797 0,-0.3435408 -0.283304,-0.620731 -0.6318482,-0.620731 z m 1.7168002,0 c -0.348538,0 -0.629771,0.27719 -0.629771,0.620731 0,0.3435402 0.281227,0.6227797 0.629771,0.6227797 0.348543,0 0.631848,-0.2792385 0.631848,-0.6227797 0,-0.3435405 -0.283303,-0.620731 -0.631848,-0.620731 z m -3.4980321,0.0082 c -0.3485434,0 -0.6318489,0.279238 -0.6318489,0.6227797 0,0.3435401 0.2833054,0.6227797 0.6318489,0.6227797 0.3485431,0 0.6297704,-0.2792388 0.6297704,-0.6227797 C 8.5823762,8.553677 8.3011502,8.2744382 7.9526059,8.2744382 Z m 1.7812319,0.1167739 c 0.2780432,0 0.5050632,0.221702 0.5050632,0.4957653 0,0.2740638 -0.227006,0.4957654 -0.5050632,0.4957654 -0.2780438,0 -0.5029849,-0.2217024 -0.5029849,-0.4957654 0,-0.2740642 0.2249272,-0.4957652 0.5029849,-0.4957653 z"
         sodipodi:nodetypes="scsscccssccccccaccccccssssccccsssscssssssssssssssssssssssssscsssssssssssssssssssssss" />
    </g>
  </g>
</svg>
