<?xml version="1.0" encoding="UTF-8" standalone="no"?>
<svg
   viewBox="0 0 15 15"
   version="1.1"
   id="svg8558"
   sodipodi:docname="server-online.svg"
   inkscape:version="1.1.1 (3bf5ae0d25, 2021-09-20)"
   xmlns:inkscape="http://www.inkscape.org/namespaces/inkscape"
   xmlns:sodipodi="http://sodipodi.sourceforge.net/DTD/sodipodi-0.dtd"
   xmlns:xlink="http://www.w3.org/1999/xlink"
   xmlns="http://www.w3.org/2000/svg"
   xmlns:svg="http://www.w3.org/2000/svg">
  <defs
     id="defs8562">
    <linearGradient
       inkscape:collect="always"
       id="linearGradient4026">
      <stop
         style="stop-color:#9cc275;stop-opacity:1;"
         offset="0"
         id="stop4022" />
      <stop
         style="stop-color:#9cc275;stop-opacity:0;"
         offset="1"
         id="stop4024" />
    </linearGradient>
    <linearGradient
       inkscape:collect="always"
       xlink:href="#linearGradient4026"
       id="linearGradient4028"
       x1="11.390625"
       y1="3.1308594"
       x2="-0.97291243"
       y2="21.674776"
       gradientUnits="userSpaceOnUse"
       gradientTransform="matrix(0.91140395,0,0,0.89832217,0.82878395,0.55556599)" />
  </defs>
  <sodipodi:namedview
     id="namedview8560"
     pagecolor="#ffffff"
     bordercolor="#666666"
     borderopacity="1.0"
     inkscape:pageshadow="2"
     inkscape:pageopacity="0.0"
     inkscape:pagecheckerboard="0"
     showgrid="false"
     inkscape:zoom="32"
     inkscape:cx="10.03125"
     inkscape:cy="10.796875"
     inkscape:window-width="1633"
     inkscape:window-height="1081"
     inkscape:window-x="1739"
     inkscape:window-y="173"
     inkscape:window-maximized="0"
     inkscape:current-layer="g8554" />
  <g
     stroke="none"
     stroke-width="1"
     fill="none"
     fill-rule="evenodd"
     id="g8556"
     style="fill:#ffffff;fill-opacity:1;stroke-width:1.00002;stroke-miterlimit:4;stroke-dasharray:none"
     transform="matrix(0.72298914,0,0,0.72298914,2.0767411,2.0775917)">
    <g
       transform="matrix(1.5176,0,0,1.5397,-4.1302,-3.9124)"
       fill="#ffffff"
       stroke-width="1"
       id="g8554"
       style="fill:#ffffff;fill-opacity:1;stroke-width:0.654199;stroke-miterlimit:4;stroke-dasharray:none">
      <path
         id="rect2369"
         style="fill:url(#linearGradient4028);fill-opacity:1;fill-rule:evenodd;stroke:none;stroke-width:1.31347;stroke-miterlimit:4;stroke-dasharray:none;stroke-opacity:0.495968"
         d="m 7.6411725,0.85208247 c -2.7516377,0.0035 -5.4996826,0.092219 -5.6642332,0.25440763 -0.085348,0.084124 -0.3660059,0.8411354 -0.4094197,1.9229709 -0.025535,0.6363213 0.042096,2.519936 0.8088603,2.519936 1.3174749,0 5.075579,0.1266316 5.075579,0.1266316 l 0.00711,0.7825309 c 0,0 -4.9600882,0.015055 -4.8319824,0.015055 -1.11868,0 -1.0921139,1.1124534 -1.116533,2.300196 -0.034174,1.6622445 -0.00144,2.3889395 1.3617657,2.4757525 1.2121336,0.07719 4.5679098,0.117451 4.5679099,0.117451 l 0.012461,0.945694 c -0.1026675,0.04928 -0.2738924,0.234304 -0.3275357,0.333362 l -5.8299908,0.01228 v 0.903931 l 5.8157501,0.0035 c 0.085556,0.183013 0.4333345,0.372137 0.697584,0.371204 0.2607958,-9.21e-4 0.6002308,-0.188194 0.6857866,-0.371204 l 5.6584397,0.0035 -0.01959,-0.923231 H 8.4800465 C 8.4258016,12.5459 8.1222492,12.310954 8.1222492,12.310954 l -0.00712,-0.94394 c 0,0 3.4297298,0.01634 4.5156248,-0.137301 1.213093,-0.171638 1.240903,-0.654876 1.269201,-1.2417645 0.04911,-1.018453 -0.01568,-2.5204694 -0.104283,-3.0119426 -0.07415,-0.4113318 -0.584434,-0.6092004 -1.008236,-0.6024006 -1.359583,0.021814 -4.6803803,0.092908 -4.6803803,0.092908 L 8.1172727,5.6789058 12.965333,5.5984668 C 13.867548,5.5504492 13.917017,4.5342459 13.892832,3.13824 13.843332,2.0045701 13.893351,1.3318834 13.355248,1.1064908 12.828434,0.88582657 10.39281,0.84858497 7.6411725,0.85208247 Z m 0.026701,0.80113513 c 2.2883219,-0.00242 4.9005855,0.082438 5.0839605,0.2631804 0.36675,0.3614846 0.386349,2.2278118 0,2.6086149 C 12.365488,4.9058164 3.0169799,4.9426432 2.6502307,4.581158 2.2834816,4.219673 2.3315623,2.258565 2.6787121,1.916398 2.852287,1.7453144 5.379552,1.6556323 7.6678735,1.6532176 Z m 2.07202,1.0411272 c -0.2985093,0 -0.5411461,0.239153 -0.5411461,0.5333788 0,0.2942248 0.2426362,0.5333788 0.5411461,0.5333788 0.2985095,0 0.5411465,-0.2391534 0.5411465,-0.5333788 0,-0.2942251 -0.242636,-0.5333788 -0.5411465,-0.5333788 z m 1.4703515,0 c -0.29851,0 -0.541147,0.2391534 -0.541147,0.5333788 0,0.2942247 0.242636,0.5333788 0.541147,0.5333788 0.29851,0 0.539366,-0.2391538 0.539366,-0.5333788 0,-0.294225 -0.240855,-0.5333788 -0.539366,-0.5333788 z m -3.0190262,0.00878 c -0.2985094,0 -0.539366,0.2391533 -0.539366,0.5333788 0,0.2942246 0.2408559,0.5316243 0.539366,0.5316243 0.2985091,0 0.5411461,-0.237399 0.5411461,-0.5316243 0,-0.2942251 -0.2426359,-0.5333788 -0.5411461,-0.5333788 z m 3.0190262,0.1000085 c 0.238139,0 0.43078,0.1898762 0.43078,0.4245976 0,0.2347218 -0.192642,0.4245976 -0.43078,0.4245976 -0.23814,0 -0.432561,-0.1898764 -0.432561,-0.4245976 0,-0.2347218 0.194421,-0.4245974 0.432561,-0.4245976 z M 7.6571932,7.3186127 c 2.2883225,-0.00242 4.9447128,-0.1282255 5.0857398,0.086282 0.310524,0.472317 0.37203,2.5110355 0,2.8636073 -0.386348,0.380804 -9.7081521,0.361485 -10.0749012,0 -0.3667494,-0.3614858 -0.3471499,-2.48174 0,-2.8239067 C 2.8416067,7.2735119 5.3688711,7.3210274 7.6571932,7.3186127 Z m 2.0720199,1.0376181 c -0.2985081,-1e-7 -0.539366,0.2373984 -0.539366,0.5316242 0,0.2942244 0.2408556,0.5333788 0.539366,0.5333788 0.2985059,0 0.5411459,-0.2391538 0.5411459,-0.5333788 0,-0.294225 -0.242636,-0.5316242 -0.5411459,-0.5316242 z m 1.4703509,0 c -0.298505,0 -0.539366,0.237399 -0.539366,0.5316242 0,0.2942245 0.240856,0.5333788 0.539366,0.5333788 0.298509,0 0.541146,-0.2391534 0.541146,-0.5333788 0,-0.2942248 -0.242635,-0.5316242 -0.541146,-0.5316242 z m -2.9958844,0.00702 c -0.2985095,0 -0.5411461,0.239153 -0.5411461,0.5333788 0,0.2942244 0.2426365,0.5333788 0.5411461,0.5333788 0.2985092,0 0.539366,-0.2391537 0.539366,-0.5333788 -1e-7,-0.2942251 -0.2408557,-0.5333788 -0.539366,-0.5333788 z m 1.5255335,0.1000108 c 0.2381299,0 0.4325609,0.1898764 0.4325609,0.4245975 0,0.2347216 -0.1944192,0.4245976 -0.4325609,0.4245976 -0.2381302,0 -0.4307807,-0.1898767 -0.4307807,-0.4245976 0,-0.2347219 0.1926386,-0.4245974 0.4307807,-0.4245975 z"
         sodipodi:nodetypes="scsscccssccccccaccccccssssccccsssscssssssssssssssssssssssssscsssssssssssssssssssssss" />
    </g>
  </g>
</svg>
